<?xml version="1.0" standalone="no"?>
<!DOCTYPE svg PUBLIC "-//W3C//DTD SVG 20010904//EN"
 "http://www.w3.org/TR/2001/REC-SVG-20010904/DTD/svg10.dtd">
<svg version="1.0" xmlns="http://www.w3.org/2000/svg"
 width="512.000000pt" height="512.000000pt" viewBox="0 0 512.000000 512.000000"
 preserveAspectRatio="xMidYMid meet">
<metadata>
Created by potrace 1.14, written by Peter Selinger 2001-2017
</metadata>
<g transform="translate(0.000000,512.000000) scale(0.100000,-0.100000)"
fill="#000000" stroke="none">
<path d="M1930 2550 l0 -2410 630 0 630 0 0 2410 0 2410 -630 0 -630 0 0
-2410z m860 0 l0 -2010 -230 0 -230 0 0 2010 0 2010 230 0 230 0 0 -2010z"/>
<path d="M250 1760 l0 -1620 630 0 630 0 0 1620 0 1620 -630 0 -630 0 0 -1620z
m860 0 l0 -1220 -230 0 -230 0 0 1220 0 1220 230 0 230 0 0 -1220z"/>
<path d="M3610 1085 l0 -935 630 0 630 0 0 935 0 935 -630 0 -630 0 0 -935z
m860 -5 l0 -540 -230 0 -230 0 0 540 0 540 230 0 230 0 0 -540z"/>
</g>
</svg>
